<svg xmlns="http://www.w3.org/2000/svg" xmlns:xlink="http://www.w3.org/1999/xlink" zoomAndPan="magnify" preserveAspectRatio="xMidYMid meet" version="1.0" viewBox="7.91 142.18 285.42 50.47"><defs><g></g><clipPath id="8f16762a55"><path d="M 7.929688 149 L 132 149 L 132 192.652344 L 7.929688 192.652344 Z M 7.929688 149 " clip-rule="nonzero"></path></clipPath></defs><path fill="#ffffff" d="M 132.445312 163.0625 C 131.757812 164.246094 131.34375 165.238281 131.132812 165.925781 C 132.828125 163.28125 137.332031 159.847656 141.835938 160.648438 C 142.902344 159.257812 145.597656 155.753906 146.605469 154.40625 C 142.691406 152.035156 134.730469 158.617188 132.445312 163.0625 Z M 140.070312 164.660156 L 140.984375 165.738281 C 141.1875 165.5625 141.394531 165.394531 141.601562 165.226562 L 140.566406 164.015625 Z M 140.058594 167.976562 C 139.050781 168.753906 134.054688 174.636719 134.574219 175.519531 C 139.957031 175.371094 149.367188 167.0625 151.277344 161.40625 C 148.671875 161.105469 142.355469 165.625 140.058594 167.976562 Z M 147.035156 171.625 L 145.949219 170.34375 C 145.757812 170.53125 145.558594 170.707031 145.355469 170.886719 L 146.3125 172.011719 Z M 149.632812 174.691406 C 148.136719 178.082031 145.21875 179.675781 143.589844 180.582031 C 149.15625 180.007812 159.148438 172.492188 157.464844 167.210938 C 155.148438 168.457031 152.828125 169.699219 150.511719 170.941406 C 150.421875 172.105469 150.214844 173.363281 149.632812 174.691406 Z M 168.4375 157.589844 C 169.253906 156.441406 169.96875 155.140625 170.515625 153.816406 C 167.210938 151.351562 163.871094 147.441406 161.949219 143.777344 C 152.085938 145.757812 147.210938 156.050781 141.214844 163.167969 L 142.417969 164.585938 C 152.863281 156.96875 156.039062 160.152344 146.707031 169.632812 L 147.972656 171.125 C 154.875 167.054688 163.613281 164.050781 168.4375 157.589844 Z M 167.121094 147.957031 C 165.875 146.488281 164.789062 144.964844 163.894531 143.429688 C 163.601562 143.46875 163.304688 143.511719 163.011719 143.566406 C 164.832031 146.917969 167.875 150.488281 170.898438 152.800781 C 171 152.515625 171.085938 152.234375 171.167969 151.949219 C 169.757812 150.804688 168.398438 149.464844 167.121094 147.957031 Z M 171.484375 150.570312 C 172.449219 145.828125 169.867188 142.890625 165.042969 143.324219 C 166.664062 146.023438 169.035156 148.796875 171.4375 150.824219 C 171.453125 150.734375 171.472656 150.648438 171.484375 150.570312 Z M 137.109375 156.203125 C 141.414062 153.023438 144.605469 152.035156 147.238281 153.578125 C 150.773438 148.667969 155.429688 144.0625 161.460938 142.828125 L 161.457031 142.820312 C 162.0625 142.691406 162.738281 142.546875 163.347656 142.460938 L 163.339844 142.441406 C 170.464844 140.96875 174.425781 145.96875 172.058594 152.65625 L 172.042969 152.644531 C 171.863281 153.234375 171.613281 153.878906 171.386719 154.449219 L 171.378906 154.441406 C 169.003906 160.277344 163.953125 163.761719 158.386719 166.714844 C 161.175781 172.554688 147.222656 183.679688 141.824219 181.191406 C 141.277344 179.5625 149.125 178.03125 149.410156 171.535156 C 148.578125 171.980469 146.898438 172.878906 146.066406 173.324219 L 144.566406 171.558594 C 132.195312 181.066406 129.667969 176.085938 140.199219 166.421875 L 138.734375 164.699219 C 139.316406 163.941406 140.492188 162.402344 141.074219 161.644531 C 136.589844 161.160156 133.15625 164.792969 131.304688 167.335938 C 130.496094 168.070312 129.960938 167.570312 129.921875 166.824219 C 130.527344 163.128906 133.207031 159.332031 137.109375 156.203125 " fill-opacity="1" fill-rule="nonzero"></path><path fill="#ffffff" d="M 162.707031 151.796875 C 159.238281 147.855469 153.300781 152.90625 156.625 156.960938 C 160.089844 160.898438 166.027344 155.851562 162.707031 151.796875 Z M 155.832031 157.632812 C 151.640625 152.523438 159.128906 146.167969 163.496094 151.121094 C 167.6875 156.234375 160.199219 162.597656 155.832031 157.632812 " fill-opacity="1" fill-rule="nonzero"></path><g clip-path="url(#8f16762a55)"><path fill="#ffffff" d="M 131.703125 178.136719 C 131.324219 178.300781 130.933594 178.460938 130.542969 178.617188 C 130.421875 178.664062 130.304688 178.664062 130.1875 178.613281 C 130.066406 178.5625 129.984375 178.476562 129.9375 178.355469 C 129.890625 178.238281 129.890625 178.117188 129.941406 178 C 129.992188 177.882812 130.078125 177.796875 130.195312 177.75 C 130.578125 177.597656 130.957031 177.441406 131.335938 177.28125 C 131.457031 177.230469 131.574219 177.226562 131.695312 177.277344 C 131.8125 177.324219 131.898438 177.40625 131.949219 177.527344 C 132 177.644531 132 177.761719 131.953125 177.882812 C 131.90625 178.003906 131.820312 178.085938 131.703125 178.136719 Z M 128.78125 179.285156 C 128.390625 179.425781 127.992188 179.5625 127.597656 179.691406 C 127.476562 179.734375 127.355469 179.726562 127.242188 179.667969 C 127.125 179.609375 127.046875 179.519531 127.007812 179.398438 C 126.964844 179.273438 126.976562 179.15625 127.03125 179.042969 C 127.089844 178.925781 127.179688 178.847656 127.304688 178.808594 C 127.691406 178.679688 128.078125 178.542969 128.46875 178.40625 C 128.589844 178.363281 128.707031 178.367188 128.824219 178.421875 C 128.941406 178.476562 129.019531 178.566406 129.0625 178.6875 C 129.109375 178.808594 129.101562 178.925781 129.046875 179.042969 C 128.992188 179.160156 128.902344 179.238281 128.78125 179.285156 Z M 125.800781 180.253906 C 125.398438 180.371094 124.996094 180.488281 124.59375 180.59375 C 124.46875 180.628906 124.351562 180.613281 124.238281 180.546875 C 124.128906 180.484375 124.054688 180.390625 124.019531 180.265625 C 123.988281 180.140625 124.003906 180.023438 124.066406 179.910156 C 124.132812 179.800781 124.226562 179.726562 124.351562 179.695312 C 124.75 179.585938 125.144531 179.476562 125.539062 179.359375 C 125.660156 179.324219 125.78125 179.335938 125.894531 179.398438 C 126.007812 179.460938 126.082031 179.550781 126.117188 179.675781 C 126.152344 179.800781 126.140625 179.917969 126.078125 180.03125 C 126.015625 180.144531 125.925781 180.21875 125.800781 180.253906 Z M 122.769531 181.050781 C 122.359375 181.148438 121.953125 181.238281 121.542969 181.324219 C 121.417969 181.347656 121.300781 181.328125 121.191406 181.257812 C 121.085938 181.1875 121.019531 181.085938 120.992188 180.960938 C 120.964844 180.835938 120.988281 180.71875 121.058594 180.609375 C 121.128906 180.503906 121.226562 180.4375 121.351562 180.410156 C 121.757812 180.324219 122.160156 180.238281 122.554688 180.144531 C 122.683594 180.113281 122.800781 180.132812 122.910156 180.203125 C 123.019531 180.269531 123.085938 180.367188 123.117188 180.492188 C 123.144531 180.617188 123.125 180.734375 123.058594 180.84375 C 122.988281 180.953125 122.894531 181.023438 122.769531 181.050781 Z M 119.695312 181.675781 C 119.285156 181.75 118.871094 181.816406 118.457031 181.878906 C 118.332031 181.898438 118.214844 181.871094 118.113281 181.792969 C 118.007812 181.71875 117.945312 181.617188 117.925781 181.488281 C 117.90625 181.359375 117.9375 181.246094 118.011719 181.140625 C 118.089844 181.039062 118.191406 180.976562 118.316406 180.957031 C 118.71875 180.894531 119.125 180.828125 119.535156 180.757812 C 119.664062 180.734375 119.777344 180.761719 119.882812 180.835938 C 119.988281 180.910156 120.054688 181.011719 120.074219 181.136719 C 120.097656 181.265625 120.070312 181.378906 119.996094 181.484375 C 119.921875 181.589844 119.824219 181.65625 119.695312 181.675781 Z M 116.59375 182.132812 C 116.175781 182.179688 115.761719 182.226562 115.347656 182.265625 C 115.21875 182.277344 115.105469 182.242188 115.003906 182.160156 C 114.90625 182.078125 114.851562 181.972656 114.839844 181.847656 C 114.824219 181.71875 114.859375 181.605469 114.941406 181.503906 C 115.023438 181.40625 115.128906 181.347656 115.257812 181.335938 C 115.664062 181.296875 116.074219 181.253906 116.484375 181.203125 C 116.613281 181.191406 116.726562 181.222656 116.828125 181.300781 C 116.929688 181.382812 116.988281 181.484375 117.003906 181.613281 C 117.015625 181.742188 116.984375 181.855469 116.90625 181.957031 C 116.824219 182.058594 116.722656 182.117188 116.59375 182.132812 Z M 113.472656 182.417969 C 113.058594 182.445312 112.644531 182.464844 112.222656 182.484375 C 112.09375 182.492188 111.980469 182.449219 111.886719 182.363281 C 111.789062 182.277344 111.742188 182.167969 111.734375 182.039062 C 111.730469 181.910156 111.769531 181.800781 111.855469 181.703125 C 111.945312 181.609375 112.050781 181.558594 112.179688 181.554688 C 112.59375 181.535156 113.003906 181.511719 113.414062 181.484375 C 113.542969 181.476562 113.652344 181.515625 113.75 181.601562 C 113.847656 181.6875 113.898438 181.792969 113.90625 181.921875 C 113.917969 182.050781 113.878906 182.164062 113.792969 182.257812 C 113.707031 182.355469 113.601562 182.410156 113.472656 182.417969 Z M 110.339844 182.539062 C 109.925781 182.542969 109.507812 182.542969 109.089844 182.539062 C 108.960938 182.539062 108.851562 182.492188 108.757812 182.402344 C 108.667969 182.308594 108.625 182.199219 108.625 182.070312 C 108.625 181.941406 108.671875 181.832031 108.765625 181.742188 C 108.855469 181.652344 108.96875 181.605469 109.09375 181.605469 C 109.507812 181.609375 109.917969 181.609375 110.328125 181.605469 C 110.457031 181.601562 110.570312 181.648438 110.660156 181.738281 C 110.753906 181.828125 110.800781 181.9375 110.800781 182.066406 C 110.804688 182.195312 110.757812 182.304688 110.667969 182.398438 C 110.578125 182.488281 110.46875 182.535156 110.339844 182.539062 Z M 107.207031 182.496094 C 106.792969 182.480469 106.375 182.460938 105.957031 182.433594 C 105.828125 182.425781 105.722656 182.375 105.636719 182.277344 C 105.550781 182.183594 105.511719 182.070312 105.519531 181.941406 C 105.527344 181.8125 105.578125 181.707031 105.675781 181.621094 C 105.769531 181.535156 105.882812 181.496094 106.011719 181.503906 C 106.421875 181.527344 106.832031 181.546875 107.246094 181.5625 C 107.375 181.570312 107.480469 181.617188 107.570312 181.714844 C 107.65625 181.808594 107.699219 181.917969 107.691406 182.046875 C 107.6875 182.175781 107.636719 182.285156 107.542969 182.371094 C 107.449219 182.460938 107.335938 182.5 107.207031 182.496094 Z M 104.082031 182.296875 C 103.671875 182.257812 103.257812 182.21875 102.835938 182.171875 C 102.707031 182.15625 102.601562 182.101562 102.523438 182 C 102.441406 181.898438 102.410156 181.785156 102.421875 181.65625 C 102.4375 181.527344 102.492188 181.425781 102.59375 181.34375 C 102.695312 181.261719 102.808594 181.230469 102.9375 181.242188 C 103.347656 181.289062 103.757812 181.328125 104.164062 181.367188 C 104.292969 181.378906 104.398438 181.433594 104.480469 181.53125 C 104.5625 181.628906 104.601562 181.746094 104.589844 181.871094 C 104.578125 182 104.523438 182.105469 104.421875 182.1875 C 104.324219 182.269531 104.210938 182.308594 104.082031 182.296875 Z M 100.96875 181.9375 C 100.558594 181.882812 100.144531 181.820312 99.730469 181.753906 C 99.601562 181.734375 99.503906 181.671875 99.425781 181.566406 C 99.351562 181.464844 99.324219 181.347656 99.34375 181.21875 C 99.363281 181.09375 99.425781 180.992188 99.53125 180.917969 C 99.632812 180.839844 99.75 180.8125 99.878906 180.832031 C 100.289062 180.898438 100.695312 180.960938 101.097656 181.015625 C 101.226562 181.035156 101.328125 181.09375 101.40625 181.195312 C 101.484375 181.300781 101.515625 181.414062 101.496094 181.542969 C 101.480469 181.667969 101.417969 181.773438 101.316406 181.851562 C 101.214844 181.925781 101.097656 181.957031 100.96875 181.9375 Z M 97.878906 181.429688 C 97.46875 181.351562 97.058594 181.273438 96.652344 181.1875 C 96.523438 181.160156 96.425781 181.09375 96.355469 180.984375 C 96.285156 180.875 96.261719 180.761719 96.289062 180.632812 C 96.316406 180.507812 96.382812 180.410156 96.492188 180.339844 C 96.597656 180.269531 96.714844 180.246094 96.84375 180.273438 C 97.242188 180.355469 97.644531 180.4375 98.054688 180.515625 C 98.179688 180.539062 98.277344 180.605469 98.351562 180.710938 C 98.425781 180.816406 98.449219 180.933594 98.425781 181.058594 C 98.402344 181.1875 98.335938 181.285156 98.230469 181.359375 C 98.121094 181.429688 98.003906 181.457031 97.878906 181.429688 Z M 94.816406 180.773438 C 94.410156 180.675781 94.003906 180.574219 93.601562 180.46875 C 93.476562 180.4375 93.382812 180.363281 93.316406 180.253906 C 93.25 180.144531 93.234375 180.023438 93.269531 179.898438 C 93.300781 179.777344 93.371094 179.679688 93.484375 179.617188 C 93.59375 179.550781 93.710938 179.535156 93.835938 179.566406 C 94.234375 179.671875 94.632812 179.769531 95.035156 179.867188 C 95.160156 179.898438 95.257812 179.964844 95.324219 180.078125 C 95.390625 180.1875 95.410156 180.304688 95.378906 180.429688 C 95.351562 180.554688 95.28125 180.652344 95.167969 180.71875 C 95.058594 180.785156 94.941406 180.804688 94.816406 180.773438 Z M 91.789062 179.96875 C 91.390625 179.851562 90.992188 179.734375 90.589844 179.605469 C 90.46875 179.570312 90.375 179.492188 90.316406 179.378906 C 90.257812 179.265625 90.246094 179.144531 90.285156 179.023438 C 90.324219 178.898438 90.398438 178.808594 90.515625 178.75 C 90.628906 178.6875 90.746094 178.679688 90.871094 178.71875 C 91.257812 178.839844 91.652344 178.957031 92.050781 179.074219 C 92.175781 179.109375 92.269531 179.183594 92.328125 179.296875 C 92.390625 179.410156 92.40625 179.527344 92.367188 179.652344 C 92.332031 179.777344 92.257812 179.867188 92.144531 179.929688 C 92.03125 179.992188 91.914062 180.003906 91.789062 179.96875 Z M 88.804688 179.023438 C 88.40625 178.882812 88.015625 178.746094 87.625 178.601562 C 87.503906 178.558594 87.417969 178.476562 87.363281 178.363281 C 87.308594 178.246094 87.304688 178.125 87.347656 178.003906 C 87.390625 177.882812 87.472656 177.796875 87.589844 177.742188 C 87.707031 177.6875 87.824219 177.683594 87.945312 177.726562 C 88.332031 177.867188 88.71875 178.003906 89.109375 178.140625 C 89.230469 178.179688 89.320312 178.261719 89.375 178.375 C 89.433594 178.492188 89.441406 178.609375 89.398438 178.730469 C 89.355469 178.855469 89.277344 178.945312 89.160156 179 C 89.046875 179.054688 88.925781 179.0625 88.804688 179.023438 Z M 85.871094 177.933594 C 85.484375 177.777344 85.097656 177.621094 84.710938 177.457031 C 84.589844 177.40625 84.507812 177.324219 84.460938 177.203125 C 84.410156 177.085938 84.410156 176.964844 84.460938 176.847656 C 84.511719 176.726562 84.597656 176.644531 84.714844 176.597656 C 84.835938 176.546875 84.953125 176.546875 85.070312 176.597656 C 85.449219 176.757812 85.832031 176.914062 86.214844 177.066406 C 86.335938 177.113281 86.417969 177.195312 86.472656 177.316406 C 86.523438 177.433594 86.523438 177.550781 86.476562 177.671875 C 86.429688 177.792969 86.34375 177.875 86.226562 177.925781 C 86.109375 177.976562 85.988281 177.980469 85.871094 177.933594 Z M 82.988281 176.703125 C 82.609375 176.53125 82.230469 176.355469 81.855469 176.175781 C 81.738281 176.117188 81.65625 176.03125 81.613281 175.910156 C 81.570312 175.785156 81.578125 175.667969 81.632812 175.550781 C 81.691406 175.4375 81.777344 175.355469 81.898438 175.3125 C 82.019531 175.269531 82.140625 175.277344 82.257812 175.332031 C 82.625 175.507812 82.996094 175.683594 83.375 175.855469 C 83.492188 175.910156 83.574219 175.996094 83.617188 176.117188 C 83.664062 176.238281 83.660156 176.355469 83.605469 176.472656 C 83.554688 176.589844 83.464844 176.671875 83.34375 176.714844 C 83.226562 176.761719 83.105469 176.757812 82.988281 176.703125 Z M 80.171875 175.339844 C 79.792969 175.144531 79.425781 174.949219 79.0625 174.753906 C 78.949219 174.691406 78.875 174.601562 78.835938 174.476562 C 78.800781 174.355469 78.8125 174.234375 78.871094 174.121094 C 78.933594 174.007812 79.027344 173.933594 79.148438 173.898438 C 79.273438 173.859375 79.390625 173.871094 79.503906 173.933594 C 79.867188 174.128906 80.230469 174.320312 80.597656 174.507812 C 80.710938 174.566406 80.789062 174.660156 80.828125 174.78125 C 80.867188 174.902344 80.855469 175.023438 80.796875 175.136719 C 80.738281 175.25 80.648438 175.328125 80.527344 175.367188 C 80.402344 175.40625 80.285156 175.398438 80.171875 175.339844 Z M 77.421875 173.839844 C 77.058594 173.628906 76.699219 173.417969 76.34375 173.199219 C 76.230469 173.132812 76.160156 173.039062 76.128906 172.914062 C 76.101562 172.789062 76.117188 172.671875 76.183594 172.558594 C 76.25 172.449219 76.347656 172.378906 76.472656 172.347656 C 76.597656 172.316406 76.714844 172.335938 76.824219 172.402344 C 77.179688 172.617188 77.53125 172.824219 77.886719 173.03125 C 78 173.09375 78.070312 173.1875 78.105469 173.3125 C 78.136719 173.4375 78.121094 173.554688 78.058594 173.667969 C 77.992188 173.777344 77.898438 173.851562 77.773438 173.886719 C 77.648438 173.917969 77.53125 173.902344 77.421875 173.839844 Z M 74.75 172.203125 C 74.394531 171.976562 74.046875 171.746094 73.703125 171.515625 C 73.59375 171.441406 73.53125 171.34375 73.503906 171.21875 C 73.480469 171.089844 73.503906 170.972656 73.574219 170.867188 C 73.648438 170.761719 73.746094 170.695312 73.875 170.671875 C 74 170.644531 74.117188 170.667969 74.222656 170.742188 C 74.5625 170.96875 74.90625 171.195312 75.253906 171.421875 C 75.363281 171.492188 75.429688 171.589844 75.457031 171.714844 C 75.484375 171.839844 75.460938 171.957031 75.394531 172.066406 C 75.324219 172.175781 75.226562 172.242188 75.097656 172.269531 C 74.972656 172.296875 74.855469 172.273438 74.75 172.203125 Z M 72.160156 170.441406 C 71.816406 170.195312 71.480469 169.949219 71.148438 169.699219 C 71.046875 169.621094 70.984375 169.519531 70.96875 169.390625 C 70.949219 169.265625 70.976562 169.148438 71.054688 169.046875 C 71.132812 168.941406 71.234375 168.882812 71.363281 168.863281 C 71.492188 168.847656 71.605469 168.875 71.707031 168.953125 C 72.039062 169.199219 72.371094 169.441406 72.703125 169.683594 C 72.808594 169.757812 72.871094 169.859375 72.890625 169.988281 C 72.914062 170.113281 72.886719 170.230469 72.808594 170.335938 C 72.734375 170.4375 72.632812 170.5 72.507812 170.523438 C 72.378906 170.542969 72.265625 170.515625 72.160156 170.441406 Z M 69.664062 168.546875 C 69.316406 168.273438 68.996094 168.003906 68.691406 167.75 C 68.59375 167.667969 68.539062 167.5625 68.53125 167.433594 C 68.519531 167.304688 68.554688 167.191406 68.640625 167.09375 C 68.722656 166.996094 68.828125 166.941406 68.957031 166.929688 C 69.085938 166.917969 69.199219 166.957031 69.296875 167.039062 C 69.589844 167.289062 69.90625 167.546875 70.246094 167.820312 C 70.347656 167.902344 70.402344 168.003906 70.417969 168.132812 C 70.433594 168.261719 70.398438 168.375 70.320312 168.476562 C 70.238281 168.578125 70.132812 168.632812 70.007812 168.648438 C 69.878906 168.664062 69.761719 168.628906 69.664062 168.546875 Z M 67.28125 166.484375 C 66.964844 166.183594 66.664062 165.882812 66.386719 165.585938 C 66.296875 165.492188 66.253906 165.382812 66.257812 165.253906 C 66.261719 165.125 66.3125 165.015625 66.40625 164.925781 C 66.5 164.839844 66.609375 164.796875 66.738281 164.800781 C 66.867188 164.804688 66.976562 164.851562 67.0625 164.945312 C 67.332031 165.230469 67.621094 165.519531 67.925781 165.8125 C 68.019531 165.898438 68.066406 166.007812 68.070312 166.136719 C 68.074219 166.265625 68.03125 166.378906 67.941406 166.46875 C 67.851562 166.5625 67.742188 166.613281 67.613281 166.613281 C 67.484375 166.617188 67.375 166.574219 67.28125 166.484375 Z M 65.140625 164.136719 C 64.875 163.789062 64.628906 163.441406 64.402344 163.089844 C 64.332031 162.980469 64.308594 162.863281 64.335938 162.738281 C 64.363281 162.613281 64.433594 162.515625 64.539062 162.445312 C 64.648438 162.375 64.765625 162.351562 64.890625 162.378906 C 65.015625 162.40625 65.113281 162.472656 65.183594 162.582031 C 65.398438 162.910156 65.628906 163.238281 65.882812 163.566406 C 65.960938 163.667969 65.992188 163.785156 65.972656 163.910156 C 65.957031 164.039062 65.898438 164.140625 65.796875 164.21875 C 65.695312 164.300781 65.578125 164.328125 65.453125 164.3125 C 65.324219 164.296875 65.21875 164.238281 65.140625 164.136719 Z M 63.46875 161.398438 C 63.414062 161.273438 63.359375 161.152344 63.308594 161.027344 C 63.195312 160.753906 63.089844 160.472656 63 160.183594 C 62.960938 160.0625 62.972656 159.945312 63.03125 159.828125 C 63.089844 159.714844 63.179688 159.636719 63.304688 159.597656 C 63.425781 159.558594 63.542969 159.570312 63.660156 159.628906 C 63.773438 159.6875 63.851562 159.78125 63.890625 159.902344 C 63.972656 160.164062 64.066406 160.417969 64.171875 160.667969 C 64.21875 160.78125 64.265625 160.894531 64.320312 161.007812 C 64.371094 161.125 64.375 161.246094 64.332031 161.367188 C 64.285156 161.488281 64.207031 161.574219 64.089844 161.628906 C 63.972656 161.679688 63.851562 161.683594 63.730469 161.640625 C 63.609375 161.59375 63.523438 161.515625 63.46875 161.398438 Z M 62.585938 158.277344 C 62.535156 157.839844 62.511719 157.40625 62.515625 156.972656 C 62.515625 156.84375 62.5625 156.734375 62.65625 156.644531 C 62.746094 156.554688 62.855469 156.511719 62.984375 156.511719 C 63.113281 156.511719 63.222656 156.558594 63.3125 156.652344 C 63.402344 156.742188 63.449219 156.851562 63.449219 156.980469 C 63.445312 157.375 63.464844 157.769531 63.511719 158.164062 C 63.527344 158.292969 63.496094 158.40625 63.417969 158.507812 C 63.335938 158.609375 63.234375 158.667969 63.105469 158.683594 C 62.976562 158.699219 62.863281 158.667969 62.761719 158.585938 C 62.660156 158.507812 62.601562 158.402344 62.585938 158.277344 Z M 62.734375 155.023438 C 62.835938 154.585938 62.964844 154.164062 63.125 153.765625 C 63.175781 153.644531 63.257812 153.558594 63.375 153.507812 C 63.496094 153.460938 63.613281 153.457031 63.734375 153.507812 C 63.851562 153.554688 63.9375 153.636719 63.988281 153.757812 C 64.039062 153.875 64.039062 153.992188 63.992188 154.113281 C 63.847656 154.46875 63.734375 154.839844 63.644531 155.226562 C 63.617188 155.351562 63.550781 155.449219 63.441406 155.519531 C 63.332031 155.585938 63.214844 155.609375 63.089844 155.578125 C 62.964844 155.550781 62.867188 155.484375 62.796875 155.375 C 62.726562 155.265625 62.707031 155.148438 62.734375 155.023438 Z M 64.109375 152.039062 C 64.335938 151.75 64.582031 151.480469 64.847656 151.234375 C 64.90625 151.175781 64.96875 151.121094 65.03125 151.066406 C 65.128906 150.984375 65.242188 150.945312 65.371094 150.957031 C 65.5 150.964844 65.605469 151.019531 65.691406 151.117188 C 65.773438 151.214844 65.8125 151.328125 65.800781 151.457031 C 65.792969 151.585938 65.738281 151.691406 65.640625 151.773438 C 65.585938 151.824219 65.53125 151.871094 65.480469 151.917969 C 65.253906 152.128906 65.042969 152.359375 64.847656 152.609375 C 64.769531 152.710938 64.664062 152.769531 64.539062 152.785156 C 64.410156 152.800781 64.296875 152.769531 64.195312 152.691406 C 64.09375 152.613281 64.03125 152.507812 64.015625 152.382812 C 64 152.253906 64.03125 152.140625 64.109375 152.039062 Z M 66.71875 150.003906 C 67.117188 149.824219 67.53125 149.679688 67.96875 149.566406 C 68.089844 149.535156 68.210938 149.550781 68.320312 149.617188 C 68.429688 149.683594 68.503906 149.777344 68.535156 149.902344 C 68.566406 150.027344 68.550781 150.144531 68.484375 150.257812 C 68.417969 150.367188 68.324219 150.4375 68.199219 150.472656 C 67.816406 150.570312 67.449219 150.695312 67.101562 150.855469 C 66.984375 150.90625 66.863281 150.910156 66.742188 150.863281 C 66.625 150.820312 66.535156 150.738281 66.484375 150.621094 C 66.429688 150.5 66.425781 150.382812 66.472656 150.261719 C 66.519531 150.140625 66.601562 150.054688 66.71875 150.003906 Z M 69.917969 149.300781 C 70.355469 149.292969 70.789062 149.3125 71.226562 149.367188 C 71.355469 149.378906 71.457031 149.4375 71.539062 149.539062 C 71.617188 149.640625 71.648438 149.753906 71.636719 149.882812 C 71.621094 150.011719 71.5625 150.113281 71.460938 150.195312 C 71.359375 150.273438 71.246094 150.308594 71.117188 150.292969 C 70.722656 150.246094 70.332031 150.226562 69.941406 150.234375 C 69.8125 150.238281 69.699219 150.195312 69.609375 150.105469 C 69.515625 150.015625 69.464844 149.910156 69.464844 149.78125 C 69.460938 149.652344 69.503906 149.539062 69.59375 149.445312 C 69.679688 149.355469 69.789062 149.304688 69.917969 149.300781 Z M 73.140625 149.796875 L 73.214844 149.824219 C 73.597656 149.957031 73.972656 150.113281 74.34375 150.296875 C 74.457031 150.351562 74.539062 150.441406 74.578125 150.5625 C 74.621094 150.683594 74.613281 150.800781 74.558594 150.917969 C 74.5 151.035156 74.414062 151.113281 74.292969 151.15625 C 74.167969 151.199219 74.050781 151.191406 73.933594 151.132812 C 73.597656 150.96875 73.253906 150.828125 72.910156 150.707031 L 72.835938 150.679688 C 72.714844 150.636719 72.625 150.558594 72.570312 150.445312 C 72.515625 150.328125 72.507812 150.210938 72.546875 150.085938 C 72.589844 149.964844 72.667969 149.875 72.785156 149.820312 C 72.902344 149.765625 73.019531 149.757812 73.140625 149.796875 Z M 76.011719 151.285156 C 76.355469 151.527344 76.695312 151.789062 77.027344 152.074219 C 77.125 152.15625 77.179688 152.261719 77.1875 152.390625 C 77.199219 152.519531 77.164062 152.632812 77.078125 152.730469 C 76.996094 152.828125 76.890625 152.882812 76.761719 152.894531 C 76.632812 152.902344 76.519531 152.867188 76.421875 152.78125 C 76.109375 152.515625 75.792969 152.273438 75.472656 152.046875 C 75.367188 151.972656 75.304688 151.871094 75.28125 151.746094 C 75.261719 151.617188 75.285156 151.5 75.359375 151.394531 C 75.433594 151.292969 75.535156 151.226562 75.664062 151.207031 C 75.789062 151.183594 75.90625 151.210938 76.011719 151.285156 Z M 78.410156 153.40625 C 78.691406 153.710938 78.96875 154.035156 79.242188 154.371094 C 79.324219 154.472656 79.355469 154.585938 79.34375 154.714844 C 79.328125 154.84375 79.273438 154.945312 79.171875 155.027344 C 79.074219 155.109375 78.957031 155.140625 78.828125 155.128906 C 78.703125 155.113281 78.597656 155.058594 78.515625 154.957031 C 78.257812 154.636719 77.992188 154.328125 77.726562 154.039062 C 77.636719 153.945312 77.597656 153.832031 77.601562 153.703125 C 77.605469 153.574219 77.65625 153.46875 77.75 153.378906 C 77.84375 153.292969 77.957031 153.25 78.085938 153.257812 C 78.214844 153.261719 78.320312 153.3125 78.410156 153.40625 Z M 80.371094 155.90625 C 80.609375 156.261719 80.835938 156.621094 81.046875 156.988281 C 81.109375 157.097656 81.128906 157.21875 81.09375 157.339844 C 81.0625 157.464844 80.988281 157.558594 80.878906 157.625 C 80.765625 157.691406 80.648438 157.707031 80.523438 157.671875 C 80.398438 157.640625 80.304688 157.566406 80.238281 157.457031 C 80.039062 157.109375 79.824219 156.765625 79.597656 156.425781 C 79.523438 156.320312 79.5 156.203125 79.527344 156.074219 C 79.550781 155.949219 79.617188 155.851562 79.722656 155.777344 C 79.832031 155.707031 79.949219 155.683594 80.074219 155.710938 C 80.199219 155.734375 80.300781 155.800781 80.371094 155.90625 Z M 81.921875 158.6875 C 82.101562 159.082031 82.261719 159.476562 82.40625 159.875 C 82.449219 159.996094 82.445312 160.113281 82.390625 160.230469 C 82.335938 160.347656 82.246094 160.425781 82.125 160.472656 C 82.003906 160.515625 81.886719 160.507812 81.769531 160.453125 C 81.652344 160.398438 81.574219 160.3125 81.527344 160.191406 C 81.394531 159.816406 81.242188 159.445312 81.074219 159.070312 C 81.019531 158.953125 81.015625 158.835938 81.0625 158.714844 C 81.109375 158.59375 81.1875 158.507812 81.308594 158.453125 C 81.425781 158.402344 81.542969 158.398438 81.664062 158.445312 C 81.785156 158.488281 81.871094 158.570312 81.921875 158.6875 Z M 82.945312 161.722656 C 83.042969 162.148438 83.117188 162.570312 83.167969 162.988281 C 83.183594 163.117188 83.152344 163.234375 83.074219 163.335938 C 82.992188 163.4375 82.890625 163.496094 82.761719 163.511719 C 82.632812 163.527344 82.519531 163.496094 82.417969 163.414062 C 82.316406 163.335938 82.257812 163.234375 82.242188 163.105469 C 82.191406 162.714844 82.125 162.320312 82.035156 161.921875 C 82.007812 161.796875 82.027344 161.679688 82.097656 161.574219 C 82.167969 161.464844 82.265625 161.394531 82.390625 161.367188 C 82.515625 161.339844 82.632812 161.359375 82.742188 161.429688 C 82.851562 161.496094 82.917969 161.59375 82.945312 161.722656 Z M 83.257812 164.925781 C 83.25 165.09375 83.242188 165.257812 83.230469 165.425781 C 83.207031 165.6875 83.179688 165.953125 83.140625 166.21875 C 83.121094 166.34375 83.058594 166.449219 82.957031 166.523438 C 82.855469 166.601562 82.738281 166.628906 82.609375 166.613281 C 82.484375 166.59375 82.382812 166.53125 82.304688 166.429688 C 82.226562 166.324219 82.199219 166.210938 82.21875 166.082031 C 82.253906 165.839844 82.28125 165.597656 82.296875 165.355469 C 82.3125 165.199219 82.320312 165.046875 82.324219 164.894531 C 82.328125 164.765625 82.378906 164.65625 82.472656 164.566406 C 82.566406 164.480469 82.679688 164.4375 82.808594 164.441406 C 82.933594 164.445312 83.042969 164.496094 83.132812 164.589844 C 83.21875 164.683594 83.261719 164.796875 83.257812 164.925781 Z M 82.710938 168.105469 C 82.589844 168.507812 82.445312 168.910156 82.28125 169.316406 C 82.234375 169.433594 82.148438 169.519531 82.03125 169.570312 C 81.910156 169.617188 81.792969 169.621094 81.671875 169.570312 C 81.554688 169.523438 81.46875 169.4375 81.417969 169.320312 C 81.371094 169.203125 81.367188 169.082031 81.417969 168.964844 C 81.570312 168.585938 81.707031 168.207031 81.820312 167.832031 C 81.859375 167.707031 81.933594 167.617188 82.046875 167.554688 C 82.160156 167.496094 82.28125 167.484375 82.402344 167.523438 C 82.527344 167.558594 82.617188 167.636719 82.679688 167.75 C 82.738281 167.863281 82.75 167.980469 82.710938 168.105469 Z M 81.453125 171.046875 C 81.253906 171.410156 81.039062 171.777344 80.804688 172.144531 C 80.738281 172.25 80.640625 172.320312 80.511719 172.347656 C 80.386719 172.375 80.269531 172.355469 80.160156 172.285156 C 80.054688 172.21875 79.984375 172.121094 79.957031 171.992188 C 79.929688 171.867188 79.949219 171.75 80.019531 171.640625 C 80.242188 171.292969 80.445312 170.945312 80.636719 170.597656 C 80.699219 170.484375 80.792969 170.410156 80.914062 170.375 C 81.039062 170.339844 81.15625 170.351562 81.269531 170.414062 C 81.382812 170.476562 81.457031 170.566406 81.492188 170.691406 C 81.53125 170.816406 81.515625 170.933594 81.453125 171.046875 Z M 79.714844 173.703125 C 79.464844 174.035156 79.199219 174.363281 78.921875 174.695312 C 78.839844 174.792969 78.734375 174.847656 78.605469 174.859375 C 78.480469 174.871094 78.363281 174.835938 78.265625 174.75 C 78.167969 174.667969 78.113281 174.5625 78.101562 174.433594 C 78.089844 174.308594 78.125 174.191406 78.207031 174.09375 C 78.476562 173.773438 78.730469 173.457031 78.972656 173.140625 C 79.050781 173.039062 79.152344 172.976562 79.28125 172.960938 C 79.40625 172.941406 79.523438 172.972656 79.625 173.050781 C 79.726562 173.128906 79.789062 173.230469 79.804688 173.359375 C 79.824219 173.488281 79.792969 173.601562 79.714844 173.703125 Z M 77.664062 176.105469 C 77.378906 176.410156 77.082031 176.710938 76.78125 177.007812 C 76.6875 177.097656 76.578125 177.140625 76.449219 177.140625 C 76.320312 177.140625 76.210938 177.09375 76.121094 177 C 76.03125 176.910156 75.988281 176.800781 75.988281 176.671875 C 75.988281 176.542969 76.035156 176.429688 76.128906 176.339844 C 76.421875 176.054688 76.707031 175.761719 76.988281 175.464844 C 77.074219 175.371094 77.183594 175.324219 77.3125 175.320312 C 77.441406 175.316406 77.550781 175.359375 77.644531 175.449219 C 77.738281 175.535156 77.789062 175.644531 77.792969 175.773438 C 77.796875 175.902344 77.753906 176.011719 77.664062 176.105469 Z M 75.394531 178.292969 C 75.082031 178.570312 74.761719 178.839844 74.433594 179.109375 C 74.335938 179.191406 74.21875 179.226562 74.09375 179.214844 C 73.964844 179.199219 73.859375 179.144531 73.777344 179.042969 C 73.695312 178.945312 73.660156 178.832031 73.675781 178.703125 C 73.6875 178.574219 73.742188 178.46875 73.84375 178.386719 C 74.164062 178.125 74.472656 177.863281 74.777344 177.59375 C 74.875 177.507812 74.988281 177.46875 75.117188 177.480469 C 75.246094 177.488281 75.351562 177.539062 75.4375 177.636719 C 75.523438 177.734375 75.5625 177.84375 75.550781 177.972656 C 75.542969 178.101562 75.492188 178.210938 75.394531 178.292969 Z M 72.941406 180.269531 C 72.605469 180.519531 72.261719 180.761719 71.917969 181 C 71.808594 181.074219 71.695312 181.097656 71.566406 181.074219 C 71.441406 181.050781 71.339844 180.988281 71.269531 180.878906 C 71.195312 180.773438 71.171875 180.65625 71.191406 180.53125 C 71.214844 180.40625 71.28125 180.304688 71.386719 180.230469 C 71.726562 180 72.058594 179.761719 72.386719 179.519531 C 72.492188 179.441406 72.609375 179.414062 72.734375 179.433594 C 72.863281 179.453125 72.964844 179.511719 73.039062 179.617188 C 73.117188 179.71875 73.144531 179.835938 73.125 179.964844 C 73.105469 180.089844 73.046875 180.191406 72.941406 180.269531 Z M 70.335938 182.035156 C 69.980469 182.253906 69.621094 182.472656 69.261719 182.683594 C 69.148438 182.746094 69.03125 182.761719 68.90625 182.730469 C 68.78125 182.699219 68.6875 182.625 68.621094 182.515625 C 68.558594 182.402344 68.542969 182.285156 68.574219 182.160156 C 68.605469 182.035156 68.679688 181.941406 68.789062 181.875 C 69.148438 181.667969 69.5 181.457031 69.84375 181.242188 C 69.953125 181.171875 70.070312 181.15625 70.195312 181.183594 C 70.324219 181.210938 70.417969 181.28125 70.488281 181.390625 C 70.554688 181.5 70.574219 181.617188 70.546875 181.742188 C 70.515625 181.867188 70.445312 181.964844 70.335938 182.035156 Z M 67.609375 183.597656 C 67.242188 183.789062 66.867188 183.980469 66.492188 184.167969 C 66.375 184.222656 66.257812 184.230469 66.132812 184.191406 C 66.011719 184.148438 65.921875 184.070312 65.867188 183.953125 C 65.808594 183.839844 65.800781 183.71875 65.84375 183.597656 C 65.882812 183.476562 65.960938 183.386719 66.078125 183.328125 C 66.445312 183.148438 66.808594 182.964844 67.175781 182.769531 C 67.289062 182.710938 67.410156 182.699219 67.53125 182.738281 C 67.652344 182.777344 67.746094 182.851562 67.804688 182.964844 C 67.867188 183.082031 67.875 183.199219 67.839844 183.320312 C 67.800781 183.445312 67.722656 183.535156 67.609375 183.597656 Z M 64.785156 184.964844 C 64.40625 185.136719 64.019531 185.300781 63.628906 185.460938 C 63.511719 185.511719 63.394531 185.511719 63.273438 185.464844 C 63.15625 185.414062 63.070312 185.328125 63.019531 185.210938 C 62.972656 185.09375 62.972656 184.972656 63.019531 184.855469 C 63.070312 184.734375 63.152344 184.652344 63.273438 184.601562 C 63.65625 184.441406 64.035156 184.28125 64.40625 184.113281 C 64.523438 184.0625 64.640625 184.058594 64.761719 184.105469 C 64.882812 184.152344 64.96875 184.234375 65.019531 184.351562 C 65.074219 184.46875 65.078125 184.585938 65.03125 184.707031 C 64.984375 184.828125 64.902344 184.914062 64.785156 184.964844 Z M 61.878906 186.152344 C 61.496094 186.296875 61.101562 186.441406 60.699219 186.582031 C 60.578125 186.621094 60.457031 186.617188 60.34375 186.558594 C 60.226562 186.503906 60.148438 186.414062 60.105469 186.292969 C 60.0625 186.171875 60.070312 186.050781 60.125 185.9375 C 60.179688 185.820312 60.269531 185.742188 60.390625 185.699219 C 60.785156 185.5625 61.171875 185.421875 61.550781 185.28125 C 61.671875 185.234375 61.792969 185.238281 61.910156 185.292969 C 62.027344 185.34375 62.109375 185.433594 62.152344 185.554688 C 62.199219 185.671875 62.195312 185.792969 62.140625 185.910156 C 62.085938 186.027344 62 186.109375 61.878906 186.152344 Z M 58.910156 187.167969 L 57.722656 187.53125 C 57.601562 187.570312 57.480469 187.558594 57.367188 187.5 C 57.253906 187.4375 57.179688 187.347656 57.140625 187.222656 C 57.101562 187.101562 57.113281 186.980469 57.175781 186.867188 C 57.234375 186.753906 57.328125 186.679688 57.449219 186.640625 L 58.636719 186.277344 C 58.761719 186.238281 58.878906 186.25 58.992188 186.3125 C 59.105469 186.371094 59.183594 186.464844 59.21875 186.585938 C 59.257812 186.710938 59.246094 186.828125 59.1875 186.941406 C 59.125 187.054688 59.035156 187.132812 58.910156 187.167969 Z M 55.917969 188.058594 L 54.71875 188.390625 C 54.597656 188.425781 54.476562 188.410156 54.367188 188.347656 C 54.253906 188.28125 54.179688 188.1875 54.144531 188.0625 C 54.113281 187.941406 54.125 187.824219 54.191406 187.710938 C 54.253906 187.597656 54.347656 187.523438 54.472656 187.492188 L 55.667969 187.160156 C 55.792969 187.125 55.910156 187.140625 56.023438 187.203125 C 56.136719 187.265625 56.207031 187.359375 56.242188 187.484375 C 56.277344 187.609375 56.261719 187.726562 56.199219 187.839844 C 56.136719 187.949219 56.042969 188.023438 55.917969 188.058594 Z M 52.902344 188.867188 L 51.695312 189.164062 C 51.570312 189.195312 51.453125 189.179688 51.34375 189.113281 C 51.230469 189.046875 51.160156 188.949219 51.128906 188.824219 C 51.097656 188.699219 51.117188 188.582031 51.183594 188.472656 C 51.25 188.359375 51.347656 188.289062 51.472656 188.257812 L 52.679688 187.960938 C 52.804688 187.929688 52.921875 187.949219 53.03125 188.015625 C 53.140625 188.082031 53.210938 188.175781 53.242188 188.300781 C 53.273438 188.425781 53.257812 188.542969 53.191406 188.652344 C 53.125 188.765625 53.027344 188.835938 52.902344 188.867188 Z M 49.867188 189.59375 L 48.652344 189.859375 C 48.523438 189.886719 48.410156 189.867188 48.300781 189.796875 C 48.191406 189.726562 48.125 189.628906 48.09375 189.503906 C 48.066406 189.378906 48.089844 189.261719 48.160156 189.152344 C 48.226562 189.042969 48.324219 188.976562 48.453125 188.949219 L 49.667969 188.679688 C 49.792969 188.652344 49.910156 188.675781 50.015625 188.742188 C 50.125 188.8125 50.195312 188.910156 50.222656 189.035156 C 50.25 189.164062 50.226562 189.28125 50.160156 189.386719 C 50.089844 189.496094 49.992188 189.566406 49.867188 189.59375 Z M 46.8125 190.238281 L 45.589844 190.46875 C 45.460938 190.496094 45.347656 190.472656 45.238281 190.398438 C 45.132812 190.324219 45.066406 190.226562 45.042969 190.101562 C 45.019531 189.972656 45.042969 189.855469 45.117188 189.75 C 45.1875 189.644531 45.289062 189.578125 45.414062 189.554688 L 46.636719 189.320312 C 46.761719 189.296875 46.878906 189.320312 46.984375 189.394531 C 47.09375 189.464844 47.15625 189.5625 47.179688 189.691406 C 47.207031 189.816406 47.183594 189.933594 47.109375 190.039062 C 47.035156 190.148438 46.9375 190.210938 46.8125 190.238281 Z M 43.738281 190.796875 L 42.511719 191 C 42.386719 191.019531 42.269531 190.992188 42.164062 190.917969 C 42.058594 190.84375 41.996094 190.742188 41.976562 190.613281 C 41.957031 190.488281 41.984375 190.371094 42.058594 190.265625 C 42.132812 190.164062 42.234375 190.101562 42.363281 190.078125 L 43.589844 189.878906 C 43.714844 189.855469 43.832031 189.882812 43.9375 189.960938 C 44.042969 190.035156 44.105469 190.136719 44.125 190.261719 C 44.144531 190.390625 44.117188 190.507812 44.042969 190.609375 C 43.96875 190.714844 43.867188 190.777344 43.738281 190.796875 Z M 40.65625 191.277344 L 39.421875 191.445312 C 39.292969 191.460938 39.179688 191.433594 39.078125 191.355469 C 38.972656 191.277344 38.914062 191.171875 38.898438 191.046875 C 38.878906 190.917969 38.910156 190.804688 38.988281 190.699219 C 39.066406 190.597656 39.167969 190.539062 39.296875 190.519531 L 40.527344 190.351562 C 40.65625 190.335938 40.773438 190.367188 40.875 190.445312 C 40.976562 190.523438 41.035156 190.625 41.054688 190.753906 C 41.070312 190.878906 41.039062 190.996094 40.964844 191.097656 C 40.886719 191.199219 40.78125 191.261719 40.65625 191.277344 Z M 37.558594 191.671875 L 36.320312 191.804688 C 36.191406 191.820312 36.078125 191.785156 35.976562 191.707031 C 35.878906 191.625 35.820312 191.519531 35.804688 191.394531 C 35.792969 191.265625 35.824219 191.152344 35.90625 191.050781 C 35.988281 190.949219 36.09375 190.894531 36.21875 190.878906 L 37.457031 190.746094 C 37.585938 190.730469 37.699219 190.765625 37.800781 190.84375 C 37.898438 190.925781 37.957031 191.03125 37.972656 191.160156 C 37.984375 191.285156 37.953125 191.402344 37.871094 191.5 C 37.789062 191.601562 37.683594 191.660156 37.558594 191.671875 Z M 34.449219 191.984375 L 33.210938 192.082031 C 33.082031 192.09375 32.96875 192.054688 32.871094 191.972656 C 32.773438 191.890625 32.71875 191.78125 32.707031 191.652344 C 32.699219 191.527344 32.734375 191.414062 32.816406 191.316406 C 32.902344 191.214844 33.007812 191.164062 33.136719 191.152344 L 34.375 191.050781 C 34.503906 191.042969 34.617188 191.078125 34.714844 191.164062 C 34.8125 191.246094 34.867188 191.351562 34.878906 191.480469 C 34.886719 191.609375 34.851562 191.722656 34.769531 191.820312 C 34.683594 191.917969 34.578125 191.972656 34.449219 191.984375 Z M 31.335938 192.207031 L 30.09375 192.269531 C 29.964844 192.277344 29.851562 192.238281 29.757812 192.152344 C 29.660156 192.066406 29.609375 191.957031 29.601562 191.828125 C 29.597656 191.699219 29.636719 191.589844 29.722656 191.492188 C 29.808594 191.398438 29.914062 191.347656 30.042969 191.339844 L 31.285156 191.273438 C 31.414062 191.269531 31.527344 191.308594 31.625 191.394531 C 31.71875 191.480469 31.769531 191.585938 31.777344 191.714844 C 31.785156 191.84375 31.742188 191.957031 31.65625 192.050781 C 31.570312 192.148438 31.464844 192.199219 31.335938 192.207031 Z M 28.214844 192.34375 L 26.972656 192.371094 C 26.84375 192.375 26.730469 192.332031 26.640625 192.242188 C 26.546875 192.15625 26.496094 192.046875 26.496094 191.917969 C 26.492188 191.789062 26.535156 191.675781 26.625 191.582031 C 26.710938 191.492188 26.820312 191.441406 26.949219 191.4375 L 28.191406 191.410156 C 28.320312 191.40625 28.433594 191.449219 28.527344 191.539062 C 28.621094 191.628906 28.667969 191.734375 28.671875 191.863281 C 28.671875 191.992188 28.628906 192.105469 28.542969 192.199219 C 28.453125 192.292969 28.34375 192.339844 28.214844 192.34375 Z M 25.09375 192.390625 L 23.847656 192.382812 C 23.71875 192.382812 23.609375 192.335938 23.519531 192.246094 C 23.429688 192.152344 23.382812 192.042969 23.386719 191.914062 C 23.386719 191.785156 23.429688 191.675781 23.523438 191.585938 C 23.613281 191.496094 23.726562 191.449219 23.855469 191.449219 L 25.097656 191.457031 C 25.226562 191.457031 25.335938 191.503906 25.425781 191.59375 C 25.515625 191.6875 25.5625 191.796875 25.5625 191.925781 C 25.5625 192.054688 25.515625 192.164062 25.421875 192.253906 C 25.332031 192.34375 25.222656 192.390625 25.09375 192.390625 Z M 21.96875 192.347656 L 20.726562 192.304688 C 20.597656 192.296875 20.488281 192.25 20.402344 192.15625 C 20.3125 192.0625 20.273438 191.949219 20.277344 191.820312 C 20.28125 191.691406 20.332031 191.582031 20.425781 191.496094 C 20.519531 191.40625 20.628906 191.367188 20.757812 191.371094 L 22 191.414062 C 22.128906 191.417969 22.238281 191.46875 22.328125 191.5625 C 22.414062 191.65625 22.457031 191.765625 22.453125 191.894531 C 22.445312 192.023438 22.398438 192.132812 22.304688 192.222656 C 22.210938 192.308594 22.097656 192.351562 21.96875 192.347656 Z M 18.847656 192.210938 L 17.609375 192.128906 C 17.480469 192.121094 17.371094 192.070312 17.289062 191.972656 C 17.203125 191.875 17.164062 191.761719 17.171875 191.632812 C 17.179688 191.503906 17.234375 191.398438 17.328125 191.3125 C 17.425781 191.230469 17.539062 191.191406 17.667969 191.199219 L 18.910156 191.277344 C 19.039062 191.289062 19.144531 191.339844 19.230469 191.4375 C 19.3125 191.535156 19.351562 191.644531 19.34375 191.773438 C 19.335938 191.902344 19.285156 192.011719 19.1875 192.09375 C 19.089844 192.179688 18.976562 192.21875 18.847656 192.210938 Z M 15.734375 191.980469 L 14.496094 191.863281 C 14.367188 191.847656 14.261719 191.792969 14.179688 191.695312 C 14.097656 191.59375 14.0625 191.480469 14.074219 191.351562 C 14.085938 191.226562 14.144531 191.121094 14.242188 191.039062 C 14.34375 190.957031 14.457031 190.921875 14.582031 190.933594 L 15.820312 191.050781 C 15.949219 191.0625 16.054688 191.121094 16.136719 191.21875 C 16.21875 191.316406 16.253906 191.433594 16.242188 191.558594 C 16.230469 191.6875 16.175781 191.792969 16.074219 191.875 C 15.976562 191.957031 15.863281 191.992188 15.734375 191.980469 Z M 12.625 191.652344 L 11.390625 191.496094 C 11.265625 191.480469 11.160156 191.421875 11.082031 191.320312 C 11.003906 191.21875 10.972656 191.101562 10.988281 190.976562 C 11.003906 190.847656 11.0625 190.742188 11.164062 190.664062 C 11.265625 190.585938 11.382812 190.554688 11.511719 190.570312 L 12.746094 190.726562 C 12.871094 190.746094 12.976562 190.804688 13.054688 190.90625 C 13.132812 191.007812 13.164062 191.121094 13.148438 191.25 C 13.132812 191.378906 13.074219 191.480469 12.972656 191.558594 C 12.867188 191.636719 12.753906 191.667969 12.625 191.652344 Z M 9.53125 191.230469 L 8.300781 191.03125 C 8.175781 191.011719 8.074219 190.949219 8 190.84375 C 7.921875 190.742188 7.894531 190.625 7.914062 190.496094 C 7.9375 190.371094 8 190.269531 8.101562 190.195312 C 8.207031 190.117188 8.324219 190.089844 8.449219 190.109375 L 9.679688 190.308594 C 9.804688 190.328125 9.90625 190.390625 9.984375 190.496094 C 10.058594 190.597656 10.085938 190.714844 10.066406 190.84375 C 10.042969 190.96875 9.980469 191.070312 9.878906 191.144531 C 9.773438 191.222656 9.65625 191.25 9.53125 191.230469 Z M 9.53125 191.230469 " fill-opacity="1" fill-rule="nonzero"></path></g><g fill="#ffffff" fill-opacity="1"><g transform="translate(187.757805, 183.763054)"><g><path d="M 16.496094 -3.300781 L 1.648438 -3.300781 L 1.648438 0 L 16.496094 0 C 18.707031 0 19.796875 -1.121094 19.796875 -3.300781 L 19.796875 -11.546875 C 19.796875 -13.757812 18.707031 -14.847656 16.496094 -14.847656 L 4.949219 -14.847656 L 4.949219 -19.796875 L 1.648438 -19.796875 L 1.648438 -14.847656 C 1.648438 -12.667969 2.769531 -11.546875 4.949219 -11.546875 L 16.496094 -11.546875 Z M 1.648438 -23.09375 L 19.796875 -23.09375 L 19.796875 -26.394531 L 4.949219 -26.394531 C 2.769531 -26.394531 1.648438 -25.304688 1.648438 -23.09375 Z M 1.648438 -23.09375 "></path></g></g></g><g fill="#ffffff" fill-opacity="1"><g transform="translate(209.200209, 183.763054)"><g><path d="M 16.496094 -14.847656 L 1.648438 -14.847656 L 1.648438 0 L 4.949219 0 L 4.949219 -11.546875 L 16.496094 -11.546875 C 18.707031 -11.546875 19.796875 -12.667969 19.796875 -14.847656 L 19.796875 -23.09375 C 19.796875 -25.304688 18.707031 -26.394531 16.496094 -26.394531 L 1.648438 -26.394531 L 1.648438 -23.09375 L 16.496094 -23.09375 Z M 16.496094 -14.847656 "></path></g></g></g><g fill="#ffffff" fill-opacity="1"><g transform="translate(230.642613, 183.763054)"><g><path d="M 1.648438 -23.09375 L 1.648438 0 L 4.949219 0 L 4.949219 -23.09375 L 16.496094 -23.09375 L 16.496094 0 L 19.796875 0 L 19.796875 -23.09375 C 19.796875 -25.304688 18.707031 -26.394531 16.496094 -26.394531 L 4.949219 -26.394531 C 2.769531 -26.394531 1.648438 -25.304688 1.648438 -23.09375 Z M 8.25 -6.597656 L 13.195312 -6.597656 L 13.195312 -9.898438 L 8.25 -9.898438 Z M 8.25 -6.597656 "></path></g></g></g><g fill="#ffffff" fill-opacity="1"><g transform="translate(252.085017, 183.763054)"><g><path d="M 4.949219 0 L 19.796875 0 L 19.796875 -3.300781 L 4.949219 -3.300781 L 4.949219 -23.09375 L 19.796875 -23.09375 L 19.796875 -26.394531 L 4.949219 -26.394531 C 2.769531 -26.394531 1.648438 -25.304688 1.648438 -23.09375 L 1.648438 -3.300781 C 1.648438 -1.121094 2.769531 0 4.949219 0 Z M 4.949219 0 "></path></g></g></g><g fill="#ffffff" fill-opacity="1"><g transform="translate(273.527421, 183.763054)"><g><path d="M 19.796875 -26.394531 L 1.648438 -26.394531 L 1.648438 -23.09375 L 19.796875 -23.09375 Z M 1.648438 0 L 19.796875 0 L 19.796875 -3.300781 L 1.648438 -3.300781 Z M 1.648438 -6.597656 L 16.496094 -6.597656 L 16.496094 -9.898438 L 1.648438 -9.898438 Z M 1.648438 -6.597656 "></path></g></g></g><g fill="#f3952f" fill-opacity="1"><g transform="translate(188.7586, 152.451012)"><g><path d="M 6.984375 -7.90625 C 7.171875 -7.800781 7.265625 -7.640625 7.265625 -7.421875 C 7.265625 -7.285156 7.21875 -7.15625 7.125 -7.03125 C 7.03125 -6.90625 6.898438 -6.84375 6.734375 -6.84375 C 6.617188 -6.84375 6.507812 -6.867188 6.40625 -6.921875 C 5.90625 -7.203125 5.367188 -7.34375 4.796875 -7.34375 C 4.203125 -7.34375 3.671875 -7.207031 3.203125 -6.9375 C 2.742188 -6.675781 2.382812 -6.304688 2.125 -5.828125 C 1.875 -5.359375 1.75 -4.816406 1.75 -4.203125 C 1.75 -3.535156 1.878906 -2.960938 2.140625 -2.484375 C 2.410156 -2.003906 2.773438 -1.640625 3.234375 -1.390625 C 3.703125 -1.140625 4.222656 -1.015625 4.796875 -1.015625 C 5.390625 -1.015625 5.925781 -1.15625 6.40625 -1.4375 C 6.5 -1.488281 6.601562 -1.515625 6.71875 -1.515625 C 6.894531 -1.515625 7.035156 -1.445312 7.140625 -1.3125 C 7.234375 -1.1875 7.28125 -1.054688 7.28125 -0.921875 C 7.28125 -0.828125 7.253906 -0.738281 7.203125 -0.65625 C 7.148438 -0.570312 7.082031 -0.503906 7 -0.453125 C 6.6875 -0.273438 6.332031 -0.132812 5.9375 -0.03125 C 5.550781 0.0703125 5.171875 0.125 4.796875 0.125 C 4.023438 0.125 3.3125 -0.046875 2.65625 -0.390625 C 2.007812 -0.734375 1.488281 -1.234375 1.09375 -1.890625 C 0.707031 -2.546875 0.515625 -3.316406 0.515625 -4.203125 C 0.515625 -5.003906 0.695312 -5.734375 1.0625 -6.390625 C 1.4375 -7.046875 1.953125 -7.554688 2.609375 -7.921875 C 3.265625 -8.296875 3.992188 -8.484375 4.796875 -8.484375 C 5.578125 -8.484375 6.304688 -8.289062 6.984375 -7.90625 Z M 6.984375 -7.90625 "></path></g></g></g><g fill="#f3952f" fill-opacity="1"><g transform="translate(203.31466, 152.451012)"><g><path d="M 7.390625 -0.953125 C 7.472656 -0.898438 7.535156 -0.832031 7.578125 -0.75 C 7.628906 -0.664062 7.65625 -0.578125 7.65625 -0.484375 C 7.65625 -0.316406 7.597656 -0.191406 7.484375 -0.109375 C 7.378906 -0.0351562 7.253906 0 7.109375 0 C 6.953125 0 6.820312 -0.03125 6.71875 -0.09375 C 6.476562 -0.226562 6.28125 -0.445312 6.125 -0.75 C 5.976562 -1.0625 5.90625 -1.507812 5.90625 -2.09375 C 5.90625 -2.5 5.785156 -2.796875 5.546875 -2.984375 C 5.304688 -3.179688 4.992188 -3.28125 4.609375 -3.28125 L 2.1875 -3.28125 L 2.1875 -0.578125 C 2.1875 -0.410156 2.132812 -0.269531 2.03125 -0.15625 C 1.9375 -0.0507812 1.816406 0 1.671875 0 C 1.484375 0 1.320312 -0.0546875 1.1875 -0.171875 C 1.0625 -0.285156 1 -0.421875 1 -0.578125 L 1 -7.828125 C 1 -7.984375 1.050781 -8.117188 1.15625 -8.234375 C 1.269531 -8.347656 1.410156 -8.40625 1.578125 -8.40625 L 4.9375 -8.40625 C 5.375 -8.40625 5.769531 -8.296875 6.125 -8.078125 C 6.488281 -7.867188 6.773438 -7.578125 6.984375 -7.203125 C 7.203125 -6.828125 7.3125 -6.410156 7.3125 -5.953125 C 7.3125 -5.503906 7.191406 -5.082031 6.953125 -4.6875 C 6.710938 -4.300781 6.40625 -4.015625 6.03125 -3.828125 C 6.332031 -3.671875 6.566406 -3.457031 6.734375 -3.1875 C 6.910156 -2.914062 7.003906 -2.601562 7.015625 -2.25 C 7.046875 -1.789062 7.082031 -1.476562 7.125 -1.3125 C 7.164062 -1.144531 7.253906 -1.023438 7.390625 -0.953125 Z M 4.921875 -4.265625 C 5.117188 -4.285156 5.304688 -4.367188 5.484375 -4.515625 C 5.671875 -4.660156 5.816406 -4.851562 5.921875 -5.09375 C 6.035156 -5.332031 6.09375 -5.609375 6.09375 -5.921875 C 6.09375 -6.296875 5.972656 -6.617188 5.734375 -6.890625 C 5.503906 -7.160156 5.222656 -7.296875 4.890625 -7.296875 L 2.1875 -7.296875 L 2.1875 -4.265625 Z M 4.921875 -4.265625 "></path></g></g></g><g fill="#f3952f" fill-opacity="1"><g transform="translate(218.374718, 152.451012)"><g><path d="M 5.75 -1.109375 C 5.914062 -1.109375 6.050781 -1.050781 6.15625 -0.9375 C 6.269531 -0.820312 6.328125 -0.691406 6.328125 -0.546875 C 6.328125 -0.378906 6.269531 -0.242188 6.15625 -0.140625 C 6.050781 -0.046875 5.914062 0 5.75 0 L 1.578125 0 C 1.410156 0 1.269531 -0.0546875 1.15625 -0.171875 C 1.050781 -0.285156 1 -0.421875 1 -0.578125 L 1 -7.828125 C 1 -7.984375 1.050781 -8.117188 1.15625 -8.234375 C 1.269531 -8.347656 1.410156 -8.40625 1.578125 -8.40625 L 5.75 -8.40625 C 5.914062 -8.40625 6.050781 -8.351562 6.15625 -8.25 C 6.269531 -8.144531 6.328125 -8.007812 6.328125 -7.84375 C 6.328125 -7.675781 6.269531 -7.539062 6.15625 -7.4375 C 6.050781 -7.34375 5.914062 -7.296875 5.75 -7.296875 L 2.1875 -7.296875 L 2.1875 -4.84375 L 5.203125 -4.84375 C 5.367188 -4.84375 5.503906 -4.789062 5.609375 -4.6875 C 5.722656 -4.582031 5.78125 -4.453125 5.78125 -4.296875 C 5.78125 -4.128906 5.722656 -3.992188 5.609375 -3.890625 C 5.503906 -3.796875 5.367188 -3.75 5.203125 -3.75 L 2.1875 -3.75 L 2.1875 -1.109375 Z M 5.75 -1.109375 "></path></g></g></g><g fill="#f3952f" fill-opacity="1"><g transform="translate(232.11478, 152.451012)"><g><path d="M 7.453125 -0.75 C 7.472656 -0.675781 7.484375 -0.597656 7.484375 -0.515625 C 7.484375 -0.359375 7.425781 -0.226562 7.3125 -0.125 C 7.207031 -0.0195312 7.085938 0.03125 6.953125 0.03125 C 6.835938 0.03125 6.734375 0 6.640625 -0.0625 C 6.546875 -0.132812 6.472656 -0.226562 6.421875 -0.34375 L 5.671875 -2.109375 L 1.96875 -2.109375 L 1.234375 -0.34375 C 1.191406 -0.21875 1.125 -0.125 1.03125 -0.0625 C 0.945312 0 0.847656 0.03125 0.734375 0.03125 C 0.566406 0.03125 0.4375 -0.0078125 0.34375 -0.09375 C 0.257812 -0.1875 0.21875 -0.304688 0.21875 -0.453125 C 0.21875 -0.484375 0.222656 -0.546875 0.234375 -0.640625 L 3.296875 -8.0625 C 3.359375 -8.1875 3.4375 -8.28125 3.53125 -8.34375 C 3.632812 -8.414062 3.75 -8.445312 3.875 -8.4375 C 4 -8.4375 4.109375 -8.40625 4.203125 -8.34375 C 4.296875 -8.28125 4.363281 -8.1875 4.40625 -8.0625 Z M 2.421875 -3.203125 L 5.21875 -3.203125 L 3.8125 -6.5625 Z M 2.421875 -3.203125 "></path></g></g></g><g fill="#f3952f" fill-opacity="1"><g transform="translate(246.718836, 152.451012)"><g><path d="M 6.4375 -8.40625 C 6.613281 -8.40625 6.753906 -8.351562 6.859375 -8.25 C 6.960938 -8.144531 7.015625 -8.007812 7.015625 -7.84375 C 7.015625 -7.675781 6.960938 -7.546875 6.859375 -7.453125 C 6.753906 -7.359375 6.613281 -7.3125 6.4375 -7.3125 L 4.3125 -7.3125 L 4.3125 -0.578125 C 4.3125 -0.421875 4.25 -0.285156 4.125 -0.171875 C 4.007812 -0.0546875 3.867188 0 3.703125 0 C 3.523438 0 3.375 -0.0546875 3.25 -0.171875 C 3.132812 -0.285156 3.078125 -0.421875 3.078125 -0.578125 L 3.078125 -7.3125 L 0.953125 -7.3125 C 0.785156 -7.3125 0.648438 -7.359375 0.546875 -7.453125 C 0.441406 -7.554688 0.390625 -7.691406 0.390625 -7.859375 C 0.390625 -8.015625 0.441406 -8.144531 0.546875 -8.25 C 0.648438 -8.351562 0.785156 -8.40625 0.953125 -8.40625 Z M 6.4375 -8.40625 "></path></g></g></g><g fill="#f3952f" fill-opacity="1"><g transform="translate(261.022897, 152.451012)"><g><path d="M 2.1875 -0.59375 C 2.1875 -0.425781 2.125 -0.285156 2 -0.171875 C 1.882812 -0.0546875 1.742188 0 1.578125 0 C 1.398438 0 1.257812 -0.0546875 1.15625 -0.171875 C 1.050781 -0.285156 1 -0.425781 1 -0.59375 L 1 -7.828125 C 1 -7.984375 1.050781 -8.117188 1.15625 -8.234375 C 1.269531 -8.347656 1.414062 -8.40625 1.59375 -8.40625 C 1.757812 -8.40625 1.898438 -8.347656 2.015625 -8.234375 C 2.128906 -8.117188 2.1875 -7.984375 2.1875 -7.828125 Z M 2.1875 -0.59375 "></path></g></g></g><g fill="#f3952f" fill-opacity="1"><g transform="translate(271.102944, 152.451012)"><g><path d="M 7.109375 -8.40625 C 7.265625 -8.40625 7.398438 -8.351562 7.515625 -8.25 C 7.628906 -8.144531 7.6875 -8.019531 7.6875 -7.875 C 7.6875 -7.789062 7.664062 -7.703125 7.625 -7.609375 L 4.578125 -0.375 C 4.515625 -0.25 4.429688 -0.15625 4.328125 -0.09375 C 4.222656 -0.03125 4.117188 0 4.015625 0 C 3.910156 -0.0078125 3.8125 -0.0390625 3.71875 -0.09375 C 3.625 -0.15625 3.546875 -0.242188 3.484375 -0.359375 L 0.4375 -7.609375 C 0.40625 -7.671875 0.390625 -7.753906 0.390625 -7.859375 C 0.390625 -8.023438 0.445312 -8.160156 0.5625 -8.265625 C 0.6875 -8.367188 0.816406 -8.421875 0.953125 -8.421875 C 1.191406 -8.421875 1.367188 -8.296875 1.484375 -8.046875 L 4.109375 -1.859375 L 6.578125 -8.046875 C 6.628906 -8.160156 6.703125 -8.25 6.796875 -8.3125 C 6.890625 -8.375 6.992188 -8.40625 7.109375 -8.40625 Z M 7.109375 -8.40625 "></path></g></g></g><g fill="#f3952f" fill-opacity="1"><g transform="translate(286.067008, 152.451012)"><g><path d="M 5.75 -1.109375 C 5.914062 -1.109375 6.050781 -1.050781 6.15625 -0.9375 C 6.269531 -0.820312 6.328125 -0.691406 6.328125 -0.546875 C 6.328125 -0.378906 6.269531 -0.242188 6.15625 -0.140625 C 6.050781 -0.046875 5.914062 0 5.75 0 L 1.578125 0 C 1.410156 0 1.269531 -0.0546875 1.15625 -0.171875 C 1.050781 -0.285156 1 -0.421875 1 -0.578125 L 1 -7.828125 C 1 -7.984375 1.050781 -8.117188 1.15625 -8.234375 C 1.269531 -8.347656 1.410156 -8.40625 1.578125 -8.40625 L 5.75 -8.40625 C 5.914062 -8.40625 6.050781 -8.351562 6.15625 -8.25 C 6.269531 -8.144531 6.328125 -8.007812 6.328125 -7.84375 C 6.328125 -7.675781 6.269531 -7.539062 6.15625 -7.4375 C 6.050781 -7.34375 5.914062 -7.296875 5.75 -7.296875 L 2.1875 -7.296875 L 2.1875 -4.84375 L 5.203125 -4.84375 C 5.367188 -4.84375 5.503906 -4.789062 5.609375 -4.6875 C 5.722656 -4.582031 5.78125 -4.453125 5.78125 -4.296875 C 5.78125 -4.128906 5.722656 -3.992188 5.609375 -3.890625 C 5.503906 -3.796875 5.367188 -3.75 5.203125 -3.75 L 2.1875 -3.75 L 2.1875 -1.109375 Z M 5.75 -1.109375 "></path></g></g></g></svg>